#!OML:ASF I:\golf\golf\golf 2\Subject 1\2002-09-07\Subject1.ASF
:FULLY-SPECIFIED
:DEGREES
16
root -11.1052 17.8717 4.70596 -9.50305 82.6643 -28.2766
lowerback 4.93175 1.55678 -1.91114
upperback 5.42748 2.12703 4.00319
thorax 2.62599 0.996713 5.17025
lowerneck -13.6509 -1.14206 1.28939
upperneck 41.2061 2.04652 -4.81462
head 17.543 0.960748 -1.89043
rclavicle -4.65156e-014 -1.74931e-014
rhumerus -13.1096 23.3916 -98.9291
rradius 46.0428
rwrist -51.0359
rhand -27.9019 -7.79323
rfingers 7.12502
rthumb -1.29119 -37.7691
lclavicle -4.65156e-014 -1.74931e-014
lhumerus -9.60424 -44.4607 105.379
lradius 44.9825
lwrist 51.5629
lhand -14.029 67.9663
lfingers 7.12502
lthumb -167.899 82.4037
rfemur -35.6552 -2.77667 16.2922
rtibia 31.4058
rfoot -8.48006 -4.7497
rtoes -8.28789
lfemur -33.718 5.8903 -10.131
ltibia 28.0478
lfoot -9.16894 -1.53522
ltoes -17.5902
17
root -11.1048 17.8714 4.70719 -9.44106 82.6502 -28.2227
lowerback 4.92797 1.57527 -1.93581
upperback 5.42947 2.15093 4.00603
thorax 2.62689 1.00777 5.18665
lowerneck -13.6546 -1.18193 1.23579
upperneck 41.2113 1.98087 -4.76221
head 17.542 0.932869 -1.86844
rclavicle 1.19271e-015 2.54444e-014
rhumerus -13.082 23.3885 -98.9216
rradius 46.0391
rwrist -50.9826
rhand -27.9069 -7.92737
rfingers 7.12502
rthumb -1.29596 -37.9032
lclavicle 1.19271e-015 2.54444e-014
lhumerus -9.57842 -44.4855 105.386
lradius 44.9303
lwrist 51.4529
lhand -13.8723 67.8545
lfingers 7.12502
lthumb -167.748 82.5244
rfemur -35.674 -2.73071 16.2787
rtibia 31.4136
rfoot -8.50544 -4.78551
rtoes -7.88613
lfemur -33.724 5.92068 -10.1364
ltibia 28.0528
lfoot -9.18952 -1.57361
ltoes -17.8573
18
root -11.1041 17.8722 4.70784 -9.27926 82.6424 -28.0855
lowerback 4.89515 1.58444 -1.95278
upperback 5.42856 2.16229 3.99533
thorax 2.64291 1.01252 5.18572
lowerneck -13.6469 -1.20739 1.20341
upperneck 41.2272 1.93225 -4.70848
head 17.5452 0.915797 -1.84682
rclavicle -5.96354e-015 4.77083e-015
rhumerus -13.0309 23.3416 -98.9562
rradius 45.9521
rwrist -50.8757
rhand -27.891 -7.99807
rfingers 7.12502
rthumb -1.28069 -37.974
lclavicle -5.96354e-015 4.77083e-015
lhumerus -9.58929 -44.5313 105.358
lradius 44.9251
lwrist 51.4375
lhand -13.8083 67.8195
lfingers 7.12502
lthumb -167.686 82.5631
rfemur -35.7047 -2.69035 16.2428
rtibia 31.42
rfoot -8.54645 -4.76886
rtoes -7.0245
lfemur -33.7504 5.96401 -10.1678
ltibia 28.0528
lfoot -9.1699 -1.57804
ltoes -17.9884
19
root -11.1034 17.873 4.70691 -9.34756 82.6792 -28.1634
lowerback 4.88712 1.56439 -1.97128
upperback 5.43514 2.13537 4.0166
thorax 2.65591 0.997921 5.22001
lowerneck -13.6609 -1.21354 1.16564
upperneck 41.2445 1.93285 -4.6976
head 17.5588 0.911613 -1.83538
rclavicle 1.19271e-014 -1.19271e-014
rhumerus -13.0112 23.4441 -98.9562
rradius 45.8625
rwrist -50.857
rhand -27.8832 -7.92922
rfingers 7.12502
rthumb -1.27315 -37.9052
lclavicle 1.19271e-014 -1.19271e-014
lhumerus -9.55993 -44.578 105.328
lradius 44.9205
lwrist 51.5176
lhand -13.8404 67.81
lfingers 7.12502
lthumb -167.717 82.5708
rfemur -35.7038 -2.72803 16.247
rtibia 31.4238
rfoot -8.53267 -4.77206
rtoes -7.25308
lfemur -33.7712 5.93195 -10.1769
ltibia 28.0483
lfoot -9.14872 -1.5639
ltoes -17.9235
20
root -11.1022 17.8736 4.7065 -9.30856 82.6981 -28.1205
lowerback 4.91735 1.56914 -2.02869
upperback 5.42462 2.14031 4.05321
thorax 2.62474 0.998847 5.28976
lowerneck -13.5931 -1.21456 1.16857
upperneck 41.2129 1.95241 -4.7513
head 17.5247 0.914257 -1.85554
rclavicle 5.1684e-015 -2.3059e-014
rhumerus -13.0741 23.6345 -98.8756
rradius 45.8946
rwrist -50.9747
rhand -27.8833 -7.84255
rfingers 7.12502
rthumb -1.27323 -37.8185
lclavicle 5.1684e-015 -2.3059e-014
lhumerus -9.5665 -44.6345 105.399
lradius 44.8887
lwrist 51.5472
lhand -13.7577 67.7348
lfingers 7.12502
lthumb -167.637 82.6507
rfemur -35.6935 -2.74723 16.2406
rtibia 31.4329
rfoot -8.51404 -4.80991
rtoes -7.93308
lfemur -33.7619 5.91511 -10.1925
ltibia 28.0351
lfoot -9.15823 -1.57807
ltoes -17.7591
21
root -11.1004 17.8743 4.70632 -9.24671 82.6962 -28.0689
lowerback 4.94769 1.57831 -2.07117
upperback 5.39976 2.15109 4.07111
thorax 2.57888 1.00371 5.33067
lowerneck -13.5136 -1.19237 1.23747
upperneck 41.1772 1.98807 -4.81193
head 17.4864 0.932773 -1.88788
rclavicle -3.45885e-014 -5.56597e-014
rhumerus -13.1189 23.7179 -98.8406
rradius 45.9155
rwrist -50.9753
rhand -27.9528 -7.94033
rfingers 7.12502
rthumb -1.34037 -37.9159
lclavicle -3.45885e-014 -5.56597e-014
lhumerus -9.6088 -44.6281 105.471
lradius 44.873
lwrist 51.5523
lhand -13.7311 67.7279
lfingers 7.12502
lthumb -167.612 82.6592
rfemur -35.7027 -2.72979 16.2219
rtibia 31.441
rfoot -8.54395 -4.81436
rtoes -7.64029
lfemur -33.757 5.9033 -10.1947
ltibia 28.023
lfoot -9.15384 -1.56655
ltoes -17.5937
22
root -11.0997 17.8732 4.70547 -8.82116 82.7199 -27.6672
lowerback 4.95066 1.5697 -2.13315
upperback 5.3843 2.13727 4.05439
thorax 2.56129 0.9952 5.34829
lowerneck -13.4957 -1.1684 1.31571
upperneck 41.1825 2.02294 -4.86319
head 17.4879 0.952876 -1.91952
rclavicle -3.97569e-016 -6.36111e-015
rhumerus -13.1201 23.7314 -98.8584
rradius 45.8946
rwrist -50.8449
rhand -28.0293 -8.09998
rfingers 7.12502
rthumb -1.41423 -38.075
lclavicle -3.97569e-016 -6.36111e-015
lhumerus -9.61881 -44.5939 105.471
lradius 44.8462
lwrist 51.536
lhand -13.8017 67.7402
lfingers 7.12502
lthumb -167.68 82.6428
rfemur -35.7349 -2.77805 16.168
rtibia 31.44
rfoot -8.55476 -4.79507
rtoes -7.5255
lfemur -33.7792 5.85099 -10.2438
ltibia 28.0199
lfoot -9.15948 -1.49523
ltoes -17.5948
23
root -11.0994 17.8714 4.70555 -8.57145 82.7087 -27.441
lowerback 4.91346 1.57107 -2.15667
upperback 5.38986 2.13816 4.04075
thorax 2.58751 0.994238 5.34869
lowerneck -13.4688 -1.16938 1.32161
upperneck 41.1775 2.02485 -4.87407
head 17.4782 0.953544 -1.92491
rclavicle -3.81667e-014 -3.10104e-014
rhumerus -13.1033 23.7608 -98.8562
rradius 45.877
rwrist -50.7127
rhand -27.8897 -8.1247
rfingers 7.12502
rthumb -1.27939 -38.1006
lclavicle -3.81667e-014 -3.10104e-014
lhumerus -9.60626 -44.556 105.459
lradius 44.8105
lwrist 51.5194
lhand -13.7501 67.591
lfingers 7.12502
lthumb -167.63 82.795
rfemur -35.7658 -2.79371 16.1495
rtibia 31.4363
rfoot -8.54041 -4.76949
rtoes -7.72052
lfemur -33.8004 5.8691 -10.2742
ltibia 28.0186
lfoot -9.18729 -1.48783
ltoes -17.5366
24
root -11.0977 17.8714 4.70604 -8.98112 82.6624 -27.8849
lowerback 4.84433 1.56039 -2.09748
upperback 5.40466 2.12582 4.06292
thorax 2.64396 0.988416 5.34146
lowerneck -13.4572 -1.16254 1.28343
upperneck 41.1702 2.04949 -4.87988
head 17.4725 0.956504 -1.91599
rclavicle -2.70347e-014 -1.59028e-015
rhumerus -13.0262 23.7968 -98.8652
rradius 45.7495
rwrist -50.5807
rhand -27.6851 -8.0892
rfingers 7.12502
rthumb -1.08176 -38.0662
lclavicle -2.70347e-014 -1.59028e-015
lhumerus -9.56842 -44.5042 105.417
lradius 44.7879
lwrist 51.5222
lhand -13.6127 67.3608
lfingers 7.12502
lthumb -167.497 83.0332
rfemur -35.7912 -2.7651 16.2223
rtibia 31.4318
rfoot -8.54398 -4.74134
rtoes -7.68359
lfemur -33.8236 5.94571 -10.2175
ltibia 28.0171
lfoot -9.17528 -1.55936
ltoes -17.193
25
root -11.095 17.8726 4.70584 -8.98701 82.665 -27.9264
lowerback 4.8073 1.53742 -2.13272
upperback 5.39265 2.09404 4.09247
thorax 2.65369 0.970676 5.39459
lowerneck -13.4574 -1.15651 1.30029
upperneck 41.1839 2.09654 -4.97468
head 17.4854 0.966178 -1.95468
rclavicle 3.97569e-016 1.11319e-014
rhumerus -13.0085 23.9064 -98.8823
rradius 45.6599
rwrist -50.5174
rhand -27.7452 -8.18318
rfingers 7.12502
rthumb -1.13981 -38.1599
lclavicle 3.97569e-016 1.11319e-014
lhumerus -9.57395 -44.4624 105.404
lradius 44.795
lwrist 51.4991
lhand -13.5819 67.4314
lfingers 7.12502
lthumb -167.468 82.9644
rfemur -35.8145 -2.78057 16.2298
rtibia 31.4212
rfoot -8.54308 -4.72106
rtoes -7.59305
lfemur -33.8512 5.93966 -10.2131
ltibia 28.0199
lfoot -9.13223 -1.56838
ltoes -17.2099
26
root -11.0928 17.874 4.70615 -9.01479 82.6704 -27.9693
lowerback 4.80831 1.53524 -2.14515
upperback 5.37512 2.09055 4.10267
thorax 2.63454 0.968853 5.41197
lowerneck -13.4236 -1.15419 1.35632
upperneck 41.1747 2.12157 -5.06535
head 17.4748 0.974149 -2.00156
rclavicle -5.96354e-015 3.33958e-014
rhumerus -13.0375 24.0643 -98.8681
rradius 45.6669
rwrist -50.4978
rhand -27.8971 -8.34318
rfingers 7.12502
rthumb -1.28654 -38.319
lclavicle -5.96354e-015 3.33958e-014
lhumerus -9.61591 -44.458 105.432
lradius 44.7814
lwrist 51.4017
lhand -13.5308 67.5553
lfingers 7.12502
lthumb -167.418 82.8436
rfemur -35.8149 -2.73733 16.2198
rtibia 31.4117
rfoot -8.52859 -4.7796
rtoes -7.77412
lfemur -33.8534 5.90649 -10.198
ltibia 28.0168
lfoot -9.09823 -1.53234
ltoes -17.5306
27
root -11.0914 17.8747 4.70704 -9.16959 82.6208 -28.1508
lowerback 4.76942 1.55354 -2.0654
upperback 5.38026 2.11681 4.07501
thorax 2.66183 0.984265 5.33793
lowerneck -13.3896 -1.13957 1.40312
upperneck 41.1399 2.12966 -5.07731
head 17.4465 0.98291 -2.01294
rclavicle -3.57812e-014 -2.3059e-014
rhumerus -13.0161 24.2142 -98.8628
rradius 45.6783
rwrist -50.5776
rhand -27.9499 -8.31434
rfingers 7.12502
rthumb -1.33755 -38.2899
lclavicle -3.57812e-014 -2.3059e-014
lhumerus -9.61844 -44.4741 105.414
lradius 44.7459
lwrist 51.3105
lhand -13.4375 67.4804
lfingers 7.12502
lthumb -167.329 82.924
rfemur -35.8361 -2.66992 16.2552
rtibia 31.4097
rfoot -8.51357 -4.83414
rtoes -8.27175
lfemur -33.8555 5.97428 -10.1723
ltibia 27.9962
lfoot -9.08009 -1.53695
ltoes -17.7483
28
root -11.0898 17.875 4.70673 -8.93461 82.6349 -27.9303
lowerback 4.73868 1.54709 -2.04035
upperback 5.39815 2.10872 4.02981
thorax 2.70064 0.980538 5.27787
lowerneck -13.3806 -1.12582 1.44231
upperneck 41.1117 2.12295 -5.05577
head 17.427 0.987906 -2.01075
rclavicle -1.31198e-014 -2.70347e-014
rhumerus -12.985 24.3037 -98.8998
rradius 45.7022
rwrist -50.6505
rhand -27.9327 -8.27107
rfingers 7.12502
rthumb -1.32096 -38.2467
lclavicle -1.31198e-014 -2.70347e-014
lhumerus -9.5747 -44.4295 105.357
lradius 44.7661
lwrist 51.3888
lhand -13.5523 67.6496
lfingers 7.12502
lthumb -167.439 82.748
rfemur -35.8457 -2.70387 16.2306
rtibia 31.404
rfoot -8.50781 -4.80274
rtoes -8.50145
lfemur -33.8635 5.9968 -10.2264
ltibia 27.9768
lfoot -9.10144 -1.53438
ltoes -18.0884
29
root -11.0875 17.8759 4.70542 -9.04242 82.7174 -28.005
lowerback 4.77871 1.51546 -1.98305
upperback 5.4174 2.06862 3.98531
thorax 2.70556 0.962943 5.19896
lowerneck -13.382 -1.10841 1.52226
upperneck 41.1117 2.11464 -5.03823
head 17.4266 0.998581 -2.01901
rclavicle -1.66979e-014 -7.15625e-015
rhumerus -12.9767 24.3106 -98.9474
rradius 45.7343
rwrist -50.6451
rhand -27.8867 -8.30736
rfingers 7.12502
rthumb -1.27649 -38.2833
lclavicle -1.66979e-014 -7.15625e-015
lhumerus -9.55247 -44.4243 105.286
lradius 44.7952
lwrist 51.4667
lhand -13.7268 67.7961
lfingers 7.12502
lthumb -167.608 82.5913
rfemur -35.7889 -2.77107 16.21
rtibia 31.4034
rfoot -8.53507 -4.77609
rtoes -8.14818
lfemur -33.8258 5.90401 -10.2345
ltibia 27.9533
lfoot -9.12621 -1.52159
ltoes -18.0074
30
root -11.0858 17.8764 4.70434 -9.26198 82.7468 -28.1969
lowerback 4.82174 1.50941 -1.91082
upperback 5.41818 2.06274 3.95215
thorax 2.68591 0.963411 5.1218
lowerneck -13.3609 -1.09959 1.55998
upperneck 41.1266 2.10024 -4.99253
head 17.4278 1.00542 -2.00767
rclavicle 4.77083e-015 3.18055e-015
rhumerus -13.0125 24.2915 -98.9744
rradius 45.7773
rwrist -50.6586
rhand -27.8826 -8.30673
rfingers 7.12502
rthumb -1.27257 -38.2827
lclavicle 4.77083e-015 3.18055e-015
lhumerus -9.59236 -44.4762 105.262
lradius 44.7642
lwrist 51.3372
lhand -13.5439 67.5336
lfingers 7.12502
lthumb -167.431 82.8645
rfemur -35.7404 -2.743 16.1997
rtibia 31.4141
rfoot -8.57147 -4.85092
rtoes -7.57797
lfemur -33.7772 5.88397 -10.2194
ltibia 27.915
lfoot -9.07036 -1.57592
ltoes -17.3586
